<?xml version="1.0" encoding="iso-8859-1"?>
<!-- Generator: Adobe Illustrator 19.0.0, SVG Export Plug-In . SVG Version: 6.00 Build 0)  -->
<svg version="1.1" id="Capa_1" xmlns="http://www.w3.org/2000/svg" xmlns:xlink="http://www.w3.org/1999/xlink" x="0px" y="0px"
	 viewBox="0 0 512.008 512.008" style="enable-background:new 0 0 512.008 512.008;" xml:space="preserve">
<g>
	<g>
		<g>
			<circle cx="256.004" cy="192.004" r="64"/>
			<path d="M384.001,48.903C342.77,11.987,289.507-4.909,234.046,1.237C150.125,10.57,79.653,77.633,66.475,160.716
				c-10.719,67.563,13.844,134.042,65.701,177.792c18.084,15.271,31.324,30.479,40.867,47.188
				c13.011,22.75,22.834,47.208,29.22,72.688l3.625,14.5c5.75,23.042,26.366,39.125,50.107,39.125s44.356-16.083,50.107-39.125
				l3.625-14.5c6.386-25.479,16.209-49.938,28.022-71l42.492-49.229c43.065-36.563,67.764-89.833,67.764-146.146
				C448.004,137.466,424.68,85.299,384.001,48.903z M340.254,202.674c-5.318,41.987-40.857,74.667-84.259,74.667
				c-43.402,0-78.941-32.68-84.259-74.667H85.959c-0.444-7.056-0.479-14.161-0.051-21.333h85.827
				c5.318-41.987,40.857-74.667,84.259-74.667c43.402,0,78.941,32.68,84.259,74.667H426.1c0.224,3.552,0.569,7.087,0.569,10.667
				c0,3.583-0.361,7.115-0.585,10.667H340.254z"/>
		</g>
	</g>
</g>
<g>
</g>
<g>
</g>
<g>
</g>
<g>
</g>
<g>
</g>
<g>
</g>
<g>
</g>
<g>
</g>
<g>
</g>
<g>
</g>
<g>
</g>
<g>
</g>
<g>
</g>
<g>
</g>
<g>
</g>
</svg>
